<?xml version="1.0" encoding="utf-8"?>
<!-- Generator: Adobe Illustrator 16.0.0, SVG Export Plug-In . SVG Version: 6.00 Build 0)  -->
<!DOCTYPE svg PUBLIC "-//W3C//DTD SVG 1.1//EN" "http://www.w3.org/Graphics/SVG/1.1/DTD/svg11.dtd">
<svg version="1.1" id="Layer_1" xmlns="http://www.w3.org/2000/svg" xmlns:xlink="http://www.w3.org/1999/xlink" x="0px" y="0px"
	 width="32px" height="60px" viewBox="0 0 32 60" enable-background="new 0 0 32 60" xml:space="preserve">
<g>
	<path fill="#444444" d="M21.122,36.898v-1.409c1.881-1.06,3.413-3.701,3.413-6.344c0-4.242,0-7.682-5.12-7.682
		c-5.122,0-5.122,3.439-5.122,7.682c0,2.643,1.533,5.284,3.415,6.344v1.409c-5.791,0.471-10.243,3.319-10.243,6.758h23.899
		C31.364,40.218,26.911,37.369,21.122,36.898z"/>
	<path fill="#444444" d="M9.363,37.557c1.474-0.963,3.31-1.697,5.33-2.144c-0.402-0.473-0.768-1.004-1.082-1.574
		c-0.81-1.474-1.239-3.094-1.239-4.691c0-2.294,0-4.463,0.817-6.237c0.792-1.72,2.218-2.787,4.246-3.186
		c-0.45-2.04-1.652-3.381-4.85-3.381c-5.121,0-5.121,3.441-5.121,7.683c0,2.643,1.533,5.282,3.414,6.343v1.409
		c-5.79,0.473-10.243,3.317-10.243,6.758h7.442c0.387-0.344,0.815-0.67,1.285-0.978V37.557z"/>
</g>
</svg>
