<?xml version="1.0" encoding="utf-8"?>
<!-- Generator: Adobe Illustrator 16.0.0, SVG Export Plug-In . SVG Version: 6.00 Build 0)  -->
<!DOCTYPE svg PUBLIC "-//W3C//DTD SVG 1.1//EN" "http://www.w3.org/Graphics/SVG/1.1/DTD/svg11.dtd">
<svg version="1.1" id="Layer_1" xmlns="http://www.w3.org/2000/svg" xmlns:xlink="http://www.w3.org/1999/xlink" x="0px" y="0px"
	 width="32px" height="60px" viewBox="0 0 32 60" enable-background="new 0 0 32 60" xml:space="preserve">
<g>
	<path fill="#444444" d="M9.623,28.192c-0.267-0.268-0.699-0.268-0.966,0c-0.269,0.268-0.269,0.7,0,0.967l6.823,6.823
		c0.125,0.129,0.299,0.2,0.481,0.2l0.014-0.003c0.005,0,0.01,0.003,0.014,0.003c0.228,0,0.419-0.118,0.544-0.289l6.762-6.763
		c0.269-0.268,0.269-0.7,0-0.967c-0.267-0.267-0.698-0.267-0.966,0l-5.656,5.656V9.518c0-0.378-0.305-0.685-0.684-0.685
		c-0.377,0-0.683,0.306-0.683,0.685v24.36L9.623,28.192z"/>
	<path fill="#444444" d="M20.776,19.773c-0.379,0-0.683,0.306-0.683,0.684c0,0.378,0.304,0.684,0.683,0.684h8.889v26.665H2.317
		V21.141h8.887c0.378,0,0.684-0.306,0.684-0.684c0-0.377-0.306-0.684-0.684-0.684H0.949v29.4h30.083v-29.4H20.776z"/>
</g>
</svg>
